<svg width="268" height="39" viewBox="0 0 268 39" fill="none" xmlns="http://www.w3.org/2000/svg">
<path d="M264.043 22.1C261.721 24.05 258.373 24.9708 254.106 24.9708H245.843V39H237.795V0H254.7C258.589 0 261.721 1.02917 264.043 3.03333C266.366 5.0375 267.5 8.17917 267.5 12.35C267.5 16.9542 266.366 20.2042 264.043 22.1ZM257.887 8.07083C256.806 7.20417 255.348 6.77083 253.404 6.77083H245.843V18.2542H253.404C255.348 18.2542 256.806 17.7667 257.887 16.8458C258.967 15.925 259.453 14.4625 259.453 12.4042C259.453 10.4 258.967 8.9375 257.887 8.07083Z" fill="#00BB3E"/>
<path d="M232.682 39H223.879L221.394 30.9833H207.028L204.382 39H195.848L209.729 0H218.91L232.682 39ZM214.265 8.9375L209.242 24.2667H219.126L214.265 8.9375Z" fill="#00BB3E"/>
<path d="M191.095 39H183.48V12.6208C183.48 11.8625 183.48 10.7792 183.534 9.425V6.28333L176.189 39H168.304L161.013 6.28333V9.425C161.067 10.7792 161.067 11.8625 161.067 12.6208V39H153.506V0H165.279L172.354 30.6583L179.376 0H191.095V39Z" fill="#00BB3E"/>
<path d="M128.752 32.0125H147.979V39H120.597V0H128.752V32.0125Z" fill="#000301"/>
<path d="M115.699 39H106.896L104.412 30.9833H90.0456L87.3992 39H78.8659L92.746 0H101.927L115.699 39ZM97.2827 8.9375L92.2599 24.2667H102.143L97.2827 8.9375Z" fill="#000301"/>
<path d="M53.8065 15.2208H72.6553V21.9917H53.8065V32.0125H75.3018V39H45.8673V0H74.3296V6.93333H53.8065V15.2208Z" fill="#000301"/>
<path d="M38.0897 39H30.4745V12.6208C30.4745 11.8625 30.4745 10.7792 30.5286 9.425V6.28333L23.1834 39H15.2982L8.00714 6.28333V9.425C8.06115 10.7792 8.06115 11.8625 8.06115 12.6208V39H0.5V0H12.2738L19.3489 30.6583L26.3699 0H38.0897V39Z" fill="#000301"/>
</svg>
