<svg width="26" height="26" viewBox="0 0 26 26" fill="none" xmlns="http://www.w3.org/2000/svg">
<path d="M1 5.80029V20.2003C1 21.8805 1 22.7201 1.32698 23.3618C1.6146 23.9263 2.07321 24.3857 2.6377 24.6733C3.2788 25 4.11849 25 5.79537 25H20.2046C21.8815 25 22.72 25 23.3611 24.6733C23.9256 24.3857 24.3857 23.9263 24.6733 23.3618C25 22.7207 25 21.8822 25 20.2054V5.79537C25 4.11849 25 3.2788 24.6733 2.6377C24.3857 2.07321 23.9256 1.6146 23.3611 1.32698C22.7194 1 21.8805 1 20.2003 1H5.80029C4.12014 1 3.27943 1 2.6377 1.32698C2.07321 1.6146 1.6146 2.07321 1.32698 2.6377C1 3.27943 1 4.12014 1 5.80029Z" stroke="#00AD3A" stroke-width="2" stroke-linecap="round" stroke-linejoin="round"/>
</svg>
