<svg width="21" height="16" viewBox="0 0 21 16" fill="none" xmlns="http://www.w3.org/2000/svg">
<path d="M1.94924 9.77886C3.75778 11.5479 6.91182 14 10.5002 14C14.0886 14 17.2421 11.5479 19.0506 9.77886C19.5276 9.31231 19.7669 9.07824 19.9187 8.62016C20.0271 8.29333 20.0271 7.70678 19.9187 7.37994C19.7668 6.92184 19.5276 6.68773 19.0506 6.22114C17.242 4.4521 14.0886 2 10.5002 2C6.91182 2 3.75778 4.4521 1.94924 6.22114C1.4719 6.68806 1.23321 6.92168 1.08127 7.37994C0.972909 7.70677 0.972909 8.29333 1.08127 8.62016C1.23321 9.07842 1.4719 9.31194 1.94924 9.77886Z" stroke="#00AD3A" stroke-linecap="round" stroke-linejoin="round"/>
<path d="M8.46732 8.00004C8.46732 9.10462 9.3774 10.0001 10.5 10.0001C11.6227 10.0001 12.5327 9.10462 12.5327 8.00004C12.5327 6.89546 11.6227 6.00003 10.5 6.00003C9.3774 6.00003 8.46732 6.89546 8.46732 8.00004Z" stroke="#00AD3A" stroke-linecap="round" stroke-linejoin="round"/>
</svg>
