<svg width="16" height="17" viewBox="0 0 16 17" fill="none" xmlns="http://www.w3.org/2000/svg">
<path d="M7 14.9286C7 15.5203 7.44772 16 8 16C8.55228 16 9 15.5203 9 14.9286C9 14.3368 8.55228 13.8571 8 13.8571C7.44772 13.8571 7 14.3368 7 14.9286Z" stroke="#000301" stroke-width="2" stroke-linecap="round" stroke-linejoin="round"/>
<path d="M7 8.5C7 9.09173 7.44772 9.57143 8 9.57143C8.55228 9.57143 9 9.09173 9 8.5C9 7.90827 8.55228 7.42857 8 7.42857C7.44772 7.42857 7 7.90827 7 8.5Z" stroke="#000301" stroke-width="2" stroke-linecap="round" stroke-linejoin="round"/>
<path d="M7 2.07143C7 2.66316 7.44772 3.14286 8 3.14286C8.55228 3.14286 9 2.66316 9 2.07143C9 1.47969 8.55228 1 8 1C7.44772 1 7 1.47969 7 2.07143Z" stroke="#000301" stroke-width="2" stroke-linecap="round" stroke-linejoin="round"/>
</svg>
