<svg width="24" height="37" viewBox="0 0 24 37" fill="none" xmlns="http://www.w3.org/2000/svg">
<g filter="url(#filter0_d_509_19293)">
<path d="M9 22.9286C9 23.5203 9.44772 24 10 24C10.5523 24 11 23.5203 11 22.9286C11 22.3368 10.5523 21.8571 10 21.8571C9.44772 21.8571 9 22.3368 9 22.9286Z" stroke="#00AD3A" stroke-width="2" stroke-linecap="round" stroke-linejoin="round" shape-rendering="crispEdges"/>
<path d="M9 16.5C9 17.0917 9.44772 17.5714 10 17.5714C10.5523 17.5714 11 17.0917 11 16.5C11 15.9083 10.5523 15.4286 10 15.4286C9.44772 15.4286 9 15.9083 9 16.5Z" stroke="#00AD3A" stroke-width="2" stroke-linecap="round" stroke-linejoin="round" shape-rendering="crispEdges"/>
<path d="M9 10.0714C9 10.6632 9.44772 11.1429 10 11.1429C10.5523 11.1429 11 10.6632 11 10.0714C11 9.47969 10.5523 9 10 9C9.44772 9 9 9.47969 9 10.0714Z" stroke="#00AD3A" stroke-width="2" stroke-linecap="round" stroke-linejoin="round" shape-rendering="crispEdges"/>
</g>
<defs>
<filter id="filter0_d_509_19293" x="0" y="0" width="24" height="37" filterUnits="userSpaceOnUse" color-interpolation-filters="sRGB">
<feFlood flood-opacity="0" result="BackgroundImageFix"/>
<feColorMatrix in="SourceAlpha" type="matrix" values="0 0 0 0 0 0 0 0 0 0 0 0 0 0 0 0 0 0 127 0" result="hardAlpha"/>
<feOffset dx="2" dy="2"/>
<feGaussianBlur stdDeviation="5"/>
<feComposite in2="hardAlpha" operator="out"/>
<feColorMatrix type="matrix" values="0 0 0 0 0 0 0 0 0 1 0 0 0 0 0.22 0 0 0 0.5 0"/>
<feBlend mode="normal" in2="BackgroundImageFix" result="effect1_dropShadow_509_19293"/>
<feBlend mode="normal" in="SourceGraphic" in2="effect1_dropShadow_509_19293" result="shape"/>
</filter>
</defs>
</svg>
