<svg width="22" height="20" viewBox="0 0 22 20" fill="none" xmlns="http://www.w3.org/2000/svg">
<path d="M1 8.71429V14.886C1 16.3261 1 17.0458 1.24221 17.5958C1.45526 18.0797 1.79497 18.4735 2.21311 18.72C2.688 19 3.30999 19 4.55212 19H17.4479C18.69 19 19.3111 19 19.786 18.72C20.2041 18.4735 20.545 18.0797 20.758 17.5958C21 17.0463 21 16.3276 21 14.8903V8.71429M1 8.71429V6.14286M1 8.71429H21M1 6.14286V5.11454C1 3.6744 1 2.9538 1.24221 2.40374C1.45526 1.91989 1.79497 1.5268 2.21311 1.28027C2.68847 1 3.31121 1 4.55577 1H17.4447C18.6892 1 19.3106 1 19.786 1.28027C20.2041 1.5268 20.545 1.91989 20.758 2.40374C21 2.95326 21 3.67299 21 5.11031V6.14286M1 6.14286H21M5.44444 13.8571H9.88889M21 8.71429V6.14286" stroke="#F6F6F6" stroke-width="2" stroke-linecap="round" stroke-linejoin="round"/>
</svg>
