<svg width="1143" height="179" viewBox="0 0 1143 179" fill="none" xmlns="http://www.w3.org/2000/svg">
<g opacity="0.05">
<path d="M1120.41 100.367C1110.61 108.517 1096.47 112.365 1078.46 112.365H1043.59V171H1009.62V8H1080.97C1097.39 8 1110.61 12.3014 1120.41 20.6778C1130.21 29.0542 1135 42.1847 1135 59.6167C1135 78.8597 1130.21 92.4431 1120.41 100.367ZM1094.42 41.7319C1089.86 38.1097 1083.71 36.2986 1075.5 36.2986H1043.59V84.2931H1075.5C1083.71 84.2931 1089.86 82.2555 1094.42 78.4069C1098.98 74.5583 1101.03 68.4458 1101.03 59.843C1101.03 51.4667 1098.98 45.3542 1094.42 41.7319Z" fill="#00AD3A"/>
<path d="M988.034 171H950.876L940.389 137.494H879.75L868.579 171H832.561L891.148 8H929.903L988.034 171ZM910.297 45.3542L889.096 109.422H930.814L910.297 45.3542Z" fill="#00AD3A"/>
<path d="M812.498 171H780.354V60.7486C780.354 57.5792 780.354 53.0514 780.582 47.3917V34.2611L749.579 171H716.296L685.52 34.2611V47.3917C685.748 53.0514 685.748 57.5792 685.748 60.7486V171H653.833V8H703.529L733.393 136.136L763.029 8H812.498V171Z" fill="#00AD3A"/>
<path d="M549.349 141.796H630.505V171H514.926V8H549.349V141.796Z" fill="#F6F6F6"/>
<path d="M494.254 171H457.095L446.609 137.494H385.969L374.799 171H338.78L397.368 8H436.122L494.254 171ZM416.517 45.3542L395.316 109.422H437.034L416.517 45.3542Z" fill="#F6F6F6"/>
<path d="M233.005 71.6153H312.566V99.9139H233.005V141.796H323.736V171H199.494V8H319.633V36.9778H233.005V71.6153Z" fill="#F6F6F6"/>
<path d="M166.665 171H134.522V60.7486C134.522 57.5792 134.522 53.0514 134.75 47.3917V34.2611L103.746 171H70.463L39.6874 34.2611V47.3917C39.9154 53.0514 39.9154 57.5792 39.9154 60.7486V171H8V8H57.6968L87.5605 136.136L117.196 8H166.665V171Z" fill="#F6F6F6"/>
<path d="M1043.59 174.543H1047.13V171V115.909H1078.46C1096.9 115.909 1111.97 111.982 1122.66 103.107C1133.65 94.207 1138.54 79.3225 1138.54 59.6167C1138.54 41.5735 1133.58 27.2677 1122.71 17.9839C1112.12 8.93064 1098.01 4.45652 1080.97 4.45652H1009.62H1006.07V8V171V174.543H1009.62H1043.59ZM988.034 174.543H993.06L991.372 169.81L933.24 6.8097L932.401 4.45652H929.903H891.148H888.656L887.814 6.80143L829.226 169.801L827.522 174.543H832.561H868.579H871.133L871.941 172.121L882.304 141.038H937.785L947.494 172.058L948.272 174.543H950.876H988.034ZM812.498 174.543H816.041V171V8V4.45652H812.498H763.029H760.211L759.577 7.20153L733.38 120.468L706.98 7.1957L706.342 4.45652H703.529H653.833H650.289V8V171V174.543H653.833H685.748H689.292V171V67.1559L712.839 171.778L713.461 174.543H716.296H749.579H752.409L753.035 171.784L776.811 66.9198V171V174.543H780.354H812.498ZM634.049 141.796V138.252H630.505H552.892V8V4.45652H549.349H514.926H511.382V8V171V174.543H514.926H630.505H634.049V171V141.796ZM494.254 174.543H499.28L497.591 169.81L439.46 6.8097L438.621 4.45652H436.122H397.368H394.876L394.033 6.80143L335.446 169.801L333.741 174.543H338.78H374.799H377.353L378.161 172.121L388.523 141.038H444.005L453.714 172.058L454.491 174.543H457.095H494.254ZM316.109 71.6153V68.0718H312.566H236.549V40.5213H319.633H323.176V36.9778V8V4.45652H319.633H199.494H195.951V8V171V174.543H199.494H323.736H327.28V171V141.796V138.252H323.736H236.549V103.457H312.566H316.109V99.9139V71.6153ZM166.665 174.543H170.209V171V8V4.45652H166.665H117.196H114.379L113.744 7.20153L87.5473 120.468L61.1478 7.1957L60.5094 4.45652H57.6968H8H4.45652V8V171V174.543H8H39.9154H43.4589V171V67.1559L67.006 171.778L67.6284 174.543H70.463H103.746H106.576L107.202 171.784L130.978 66.9198V171V174.543H134.522H166.665ZM1075.5 39.8421C1083.2 39.8421 1088.48 41.5383 1092.22 44.5064C1095.54 47.1484 1097.49 51.9295 1097.49 59.843C1097.49 67.9609 1095.55 72.816 1092.14 75.6992C1088.38 78.8726 1083.11 80.7496 1075.5 80.7496H1047.13V39.8421H1075.5ZM925.959 105.879H894.002L910.242 56.8003L925.959 105.879ZM432.179 105.879H400.221L416.462 56.8004L432.179 105.879Z" stroke="#00AD3A" stroke-width="7.08696"/>
</g>
</svg>
