<svg width="21" height="18" viewBox="0 0 21 18" fill="none" xmlns="http://www.w3.org/2000/svg">
<path d="M2.36908 1L18.6306 17M15.0734 13.7559C13.6987 14.4845 12.1449 14.9999 10.4998 14.9999C6.91147 14.9999 3.75776 12.5478 1.94924 10.7788C1.47186 10.3119 1.23321 10.0784 1.08128 9.62012C0.972925 9.29328 0.972891 8.70657 1.08128 8.37974C1.23325 7.92147 1.4724 7.68745 1.95073 7.21967C2.86227 6.32821 4.11528 5.26359 5.59323 4.42676M18.1224 11.6335C18.4609 11.3405 18.7709 11.0523 19.0491 10.7803L19.0521 10.7772C19.5284 10.3114 19.7672 10.0779 19.9188 9.62061C20.0272 9.29378 20.027 8.70684 19.9186 8.38C19.7668 7.92187 19.5278 7.68775 19.0507 7.22111C17.2422 5.45208 14.0882 3 10.4998 3C10.1568 3 9.81777 3.02241 9.48349 3.06448M11.8444 10.5C11.486 10.8112 11.0153 11 10.4998 11C9.37721 11 8.46715 10.1046 8.46715 9C8.46715 8.4605 8.68425 7.97108 9.03719 7.61133" stroke="#00AD3A" stroke-linecap="round" stroke-linejoin="round"/>
</svg>
