<svg width="22" height="21" viewBox="0 0 22 21" fill="none" xmlns="http://www.w3.org/2000/svg">
<path d="M19.3532 7.39942L18.9868 7.19412C18.9299 7.16224 18.9019 7.14625 18.8745 7.12967C18.6013 6.96483 18.371 6.73708 18.203 6.46459C18.1861 6.43718 18.1701 6.40843 18.1376 6.3516C18.105 6.29485 18.0885 6.26609 18.0734 6.23762C17.9226 5.95414 17.8411 5.63822 17.8362 5.31668C17.8357 5.28436 17.8359 5.25133 17.837 5.18567L17.8441 4.75714C17.8556 4.07139 17.8613 3.72745 17.7656 3.41878C17.6807 3.14461 17.5385 2.89207 17.3486 2.67777C17.134 2.43552 16.837 2.2627 16.2423 1.91749L15.7483 1.63074C15.1552 1.2865 14.8585 1.11431 14.5437 1.04867C14.2651 0.990601 13.9777 0.993292 13.7001 1.05605C13.3869 1.12689 13.0939 1.30356 12.5084 1.6567L12.5051 1.6583L12.1512 1.87178C12.0952 1.90554 12.0669 1.92256 12.0388 1.93827C11.7604 2.09417 11.4496 2.18038 11.1313 2.19067C11.0992 2.19171 11.0666 2.19171 11.0013 2.19171C10.9364 2.19171 10.9024 2.19171 10.8704 2.19067C10.5513 2.18034 10.2399 2.09366 9.96109 1.93711C9.93299 1.92133 9.90519 1.90418 9.84911 1.87027L9.49289 1.65485C8.90339 1.29837 8.6082 1.11986 8.29321 1.04867C8.01453 0.985691 7.72608 0.983948 7.44651 1.04277C7.13084 1.10918 6.83413 1.28264 6.24071 1.62956L6.23808 1.63074L5.75022 1.91595L5.74482 1.91928C5.15675 2.26307 4.86201 2.43539 4.64921 2.67665C4.46038 2.89074 4.31923 3.14287 4.23475 3.41632C4.13926 3.72541 4.14435 4.07008 4.15585 4.75907L4.163 5.18699C4.16408 5.25179 4.16596 5.28399 4.16549 5.31586C4.16076 5.63806 4.07815 5.95462 3.92698 6.2386C3.91203 6.26669 3.89592 6.29477 3.86375 6.35087C3.83155 6.40701 3.81596 6.43493 3.79927 6.46202C3.63048 6.73596 3.39917 6.96504 3.12425 7.13016C3.09706 7.14649 3.0684 7.1622 3.01209 7.19363L2.65039 7.39554C2.04858 7.73146 1.74775 7.89958 1.52886 8.13881C1.33521 8.35045 1.18892 8.60149 1.09962 8.8749C0.998682 9.18395 0.998767 9.5305 1.00033 10.2235L1.00161 10.79C1.00316 11.4784 1.00529 11.8224 1.10645 12.1293C1.19596 12.4009 1.34118 12.6505 1.53374 12.8608C1.7514 13.0986 2.04924 13.2657 2.64648 13.6003L3.00496 13.8012C3.06597 13.8354 3.09667 13.8523 3.12609 13.8701C3.39851 14.0354 3.62801 14.2638 3.79536 14.5362C3.81344 14.5656 3.8308 14.5962 3.8655 14.6572C3.89978 14.7176 3.91732 14.7477 3.93317 14.7779C4.0799 15.0578 4.15846 15.3687 4.16382 15.6851C4.1644 15.7193 4.1639 15.7538 4.16274 15.8233L4.15585 16.234C4.14427 16.9253 4.13922 17.2714 4.23527 17.5813C4.32025 17.8555 4.46228 18.108 4.65214 18.3224C4.86675 18.5646 5.16426 18.7373 5.75902 19.0825L6.25291 19.3692C6.846 19.7135 7.14243 19.8855 7.45729 19.9511C7.73585 20.0092 8.02347 20.0069 8.30102 19.9441C8.61472 19.8732 8.90865 19.6959 9.49582 19.3418L9.84978 19.1283C9.90578 19.0945 9.93414 19.0776 9.96219 19.0619C10.2406 18.906 10.551 18.8193 10.8694 18.809C10.9015 18.808 10.9341 18.808 10.9994 18.808C11.0648 18.808 11.0974 18.808 11.1296 18.809C11.4486 18.8194 11.761 18.9063 12.0398 19.0629C12.0643 19.0766 12.0889 19.0915 12.1321 19.1176L12.5083 19.3452C13.0979 19.7017 13.3925 19.8797 13.7075 19.9509C13.9862 20.0139 14.2749 20.0164 14.5544 19.9576C14.87 19.8912 15.1673 19.7174 15.7604 19.3707L16.2556 19.0812C16.844 18.7372 17.1391 18.5647 17.352 18.3233C17.5408 18.1093 17.6821 17.8572 17.7666 17.5838C17.8614 17.2769 17.8557 16.9349 17.8444 16.2559L17.837 15.813C17.8359 15.7482 17.8357 15.716 17.8362 15.6841C17.841 15.3619 17.9222 15.0451 18.0734 14.7611C18.0883 14.7331 18.1045 14.7048 18.1366 14.6489C18.1688 14.5927 18.1855 14.5648 18.2021 14.5377C18.3709 14.2637 18.6025 14.0344 18.8774 13.8693C18.9043 13.8532 18.9319 13.8378 18.9869 13.8071L18.9888 13.8062L19.3505 13.6043C19.9523 13.2684 20.2537 13.1001 20.4726 12.8608C20.6662 12.6492 20.8123 12.3985 20.9016 12.1251C21.002 11.8179 21.0012 11.4733 20.9996 10.7884L20.9983 10.2098C20.9968 9.52136 20.996 9.17743 20.8948 8.87047C20.8053 8.5989 20.6593 8.34933 20.4667 8.13897C20.2492 7.90142 19.951 7.73429 19.3549 7.40027L19.3532 7.39942Z" stroke="#F6F6F6" stroke-width="2" stroke-linecap="round" stroke-linejoin="round"/>
<path d="M6.99876 10.5001C6.99876 12.7262 8.79031 14.5308 11.0003 14.5308C13.2103 14.5308 15.0019 12.7262 15.0019 10.5001C15.0019 8.27397 13.2103 6.46936 11.0003 6.46936C8.79031 6.46936 6.99876 8.27397 6.99876 10.5001Z" stroke="#F6F6F6" stroke-width="2" stroke-linecap="round" stroke-linejoin="round"/>
</svg>
