<svg width="22" height="21" viewBox="0 0 22 21" fill="none" xmlns="http://www.w3.org/2000/svg">
<path d="M11 14.0625L14.75 10.5M14.75 10.5L11 6.9375M14.75 10.5H1M1 4.85702V4.80023C1 3.47011 1 2.80455 1.27248 2.29651C1.51217 1.84962 1.89434 1.48656 2.36475 1.25886C2.89953 1 3.60011 1 5.00024 1H17.0002C18.4004 1 19.0995 1 19.6342 1.25886C20.1046 1.48656 20.4881 1.84962 20.7278 2.29651C21 2.80405 21 3.46881 21 4.79633V16.2042C21 17.5318 21 18.1956 20.7278 18.7031C20.4881 19.15 20.1046 19.5137 19.6342 19.7414C19.1 20 18.4013 20 17.0039 20H4.99614C3.59874 20 2.899 20 2.36475 19.7414C1.89434 19.5137 1.51217 19.1496 1.27248 18.7028C1 18.1947 1 17.5301 1 16.2V16.1406" stroke="#F6F6F6" stroke-width="2" stroke-linecap="round" stroke-linejoin="round"/>
</svg>
