<svg width="22" height="21" viewBox="0 0 22 21" fill="none" xmlns="http://www.w3.org/2000/svg">
<path d="M1 7.33333H21M1 7.33333V16.6224C1 17.8048 1 18.3956 1.27248 18.8472C1.51217 19.2444 1.89434 19.5677 2.36475 19.7701C2.899 20 3.59874 20 4.99614 20H17.0039C18.4013 20 19.1 20 19.6342 19.7701C20.1046 19.5677 20.4881 19.2444 20.7278 18.8472C21 18.3961 21 17.806 21 16.626V7.33333M1 7.33333V6.4891C1 5.30676 1 4.71515 1.27248 4.26356C1.51217 3.86633 1.89434 3.54361 2.36475 3.34121C2.89953 3.11111 3.60011 3.11111 5.00024 3.11111H6M21 7.33333V6.48563C21 5.3056 21 4.71471 20.7278 4.26356C20.4881 3.86633 20.1046 3.54361 19.6342 3.34121C19.0995 3.11111 18.4004 3.11111 17.0002 3.11111H16M16 1V3.11111M16 3.11111H6M6 1V3.11111" stroke="#F6F6F6" stroke-width="2" stroke-linecap="round" stroke-linejoin="round"/>
</svg>
