<svg width="22" height="21" viewBox="0 0 22 21" fill="none" xmlns="http://www.w3.org/2000/svg">
<path d="M5.99993 10.5H10.9999M10.9999 10.5H15.9998M10.9999 10.5V15.25M10.9999 10.5V5.75M1 16.2002V4.80023C1 3.47011 1 2.80455 1.27248 2.29651C1.51216 1.84962 1.89433 1.48656 2.36473 1.25886C2.8995 1 3.60008 1 5.00019 1H17C18.4001 1 19.0998 1 19.6346 1.25886C20.105 1.48656 20.4878 1.84962 20.7275 2.29651C21 2.80455 21 3.46961 21 4.79974V16.1998C21 17.5299 21 18.195 20.7275 18.703C20.4878 19.1499 20.105 19.5137 19.6346 19.7414C19.1004 20 18.4016 20 17.0043 20H4.99608C3.59871 20 2.89898 20 2.36473 19.7414C1.89433 19.5137 1.51216 19.15 1.27248 18.7031C1 18.1951 1 17.5304 1 16.2002Z" stroke="#F6F6F6" stroke-width="2" stroke-linecap="round" stroke-linejoin="round"/>
</svg>
