<svg width="17" height="17" viewBox="0 0 17 17" fill="none" xmlns="http://www.w3.org/2000/svg">
<path fill-rule="evenodd" clip-rule="evenodd" d="M7.43684 8.5C7.43684 9.32946 6.76468 10.0016 5.93522 10.0016C5.10576 10.0016 4.43359 9.32946 4.43359 8.5C4.43359 7.67054 5.10576 6.99838 5.93522 6.99838H5.93765C6.7663 6.99919 7.43684 7.67135 7.43684 8.5Z" stroke="#878787" stroke-linecap="round" stroke-linejoin="round"/>
<path d="M7.43945 8.5H12.5622V10.0016" stroke="#878787" stroke-linecap="round" stroke-linejoin="round"/>
<path d="M10.269 10.0016V8.5" stroke="#878787" stroke-linecap="round" stroke-linejoin="round"/>
<path fill-rule="evenodd" clip-rule="evenodd" d="M1 8.5C1 2.87541 2.87541 1 8.5 1C14.1246 1 16 2.87541 16 8.5C16 14.1246 14.1246 16 8.5 16C2.87541 16 1 14.1246 1 8.5Z" stroke="#878787" stroke-linecap="round" stroke-linejoin="round"/>
</svg>
