<svg width="26" height="26" viewBox="0 0 26 26" fill="none" xmlns="http://www.w3.org/2000/svg">
<path d="M7 13L11.5 17.5L19 8.5M1 20.2003V5.80029C1 4.12014 1 3.27943 1.32698 2.6377C1.6146 2.07321 2.07321 1.6146 2.6377 1.32698C3.27943 1 4.12014 1 5.80029 1H20.2003C21.8805 1 22.7194 1 23.3611 1.32698C23.9256 1.6146 24.3857 2.07321 24.6733 2.6377C25 3.2788 25 4.11849 25 5.79537V20.2054C25 21.8822 25 22.7207 24.6733 23.3618C24.3857 23.9263 23.9256 24.3857 23.3611 24.6733C22.72 25 21.8815 25 20.2046 25H5.79537C4.11849 25 3.2788 25 2.6377 24.6733C2.07321 24.3857 1.6146 23.9263 1.32698 23.3618C1 22.7201 1 21.8805 1 20.2003Z" stroke="#878787" stroke-width="2" stroke-linecap="round" stroke-linejoin="round"/>
</svg>
