<svg width="20" height="22" viewBox="0 0 20 22" fill="none" xmlns="http://www.w3.org/2000/svg">
<path d="M4.14947 10.9999L11.2327 10.9998M17.0171 12.4613L4.31164 19.1878C3.17301 19.7906 2.60338 20.0921 2.22793 20.0054C1.90228 19.9302 1.63319 19.703 1.50548 19.3941C1.35822 19.038 1.5618 18.4258 1.96935 17.2032L3.86289 11.5227C3.92756 11.3287 3.9596 11.2319 3.97244 11.1327C3.98384 11.0446 3.98441 10.9555 3.97301 10.8675C3.96046 10.7705 3.92879 10.6755 3.867 10.4902L1.96917 4.79656C1.56163 3.57394 1.35802 2.96241 1.50528 2.60626C1.633 2.2974 1.90204 2.06967 2.2277 1.99447C2.60321 1.90776 3.173 2.20903 4.31198 2.81201L17.0173 9.53831C17.9127 10.0124 18.3605 10.2496 18.5069 10.5658C18.6344 10.8412 18.6345 11.1587 18.507 11.4341C18.3607 11.7502 17.913 11.9872 17.0185 12.4608L17.0171 12.4613Z" stroke="#00AD3A" stroke-width="2" stroke-linecap="round" stroke-linejoin="round"/>
</svg>
