<svg width="148" height="25" viewBox="0 0 148 25" fill="none" xmlns="http://www.w3.org/2000/svg">
<path d="M145.11 14.0333C143.84 15.1833 142.009 15.7264 139.676 15.7264H135.157V24H130.757V1H140.001C142.127 1 143.84 1.60694 145.11 2.78889C146.38 3.97083 147 5.82361 147 8.28333C147 10.9986 146.38 12.9153 145.11 14.0333ZM141.743 5.75972C141.153 5.24861 140.355 4.99306 139.292 4.99306H135.157V11.7653H139.292C140.355 11.7653 141.153 11.4778 141.743 10.9347C142.334 10.3917 142.6 9.52917 142.6 8.31528C142.6 7.13333 142.334 6.27083 141.743 5.75972Z" fill="#00BB3E"/>
<path d="M127.961 24H123.147L121.789 19.2722H113.933L112.486 24H107.82L115.41 1H120.43L127.961 24ZM117.89 6.27083L115.144 15.3111H120.548L117.89 6.27083Z" fill="#00BB3E"/>
<path d="M105.221 24H101.057V8.44306C101.057 7.99583 101.057 7.35694 101.086 6.55833V4.70556L97.0697 24H92.7579L88.771 4.70556V6.55833C88.8005 7.35694 88.8005 7.99583 88.8005 8.44306V24H84.666V1H91.1041L94.9728 19.0806L98.8121 1H105.221V24Z" fill="#00BB3E"/>
<path d="M71.1304 19.8792H81.644V24H66.671V1H71.1304V19.8792Z" fill="#F6F6F6"/>
<path d="M63.993 24H59.1792L57.8207 19.2722H49.965L48.5179 24H43.8517L51.4416 1H56.4622L63.993 24ZM53.9224 6.27083L51.1758 15.3111H56.5803L53.9224 6.27083Z" fill="#F6F6F6"/>
<path d="M30.1489 9.97639H40.4557V13.9694H30.1489V19.8792H41.9028V24H25.8076V1H41.3712V5.08889H30.1489V9.97639Z" fill="#F6F6F6"/>
<path d="M21.5547 24H17.3906V8.44306C17.3906 7.99583 17.3906 7.35694 17.4201 6.55833V4.70556L13.4037 24H9.09192L5.10503 4.70556V6.55833C5.13456 7.35694 5.13456 7.99583 5.13456 8.44306V24H1V1H7.4381L11.3069 19.0806L15.1461 1H21.5547V24Z" fill="#F6F6F6"/>
<path d="M135.157 24.5H135.657V24V16.2264H139.676C142.078 16.2264 144.048 15.6682 145.443 14.4063C146.871 13.1472 147.5 11.0523 147.5 8.28333C147.5 5.74943 146.861 3.73593 145.451 2.42289C144.07 1.1376 142.226 0.5 140.001 0.5H130.757H130.257V1V24V24.5H130.757H135.157ZM127.961 24.5H128.651L128.436 23.8444L120.905 0.844415L120.793 0.5H120.43H115.41H115.048L114.935 0.843314L107.345 23.8433L107.128 24.5H107.82H112.486H112.856L112.964 24.1463L114.303 19.7722H121.412L122.667 24.1381L122.771 24.5H123.147H127.961ZM105.221 24.5H105.721V24V1V0.5H105.221H98.8121H98.4071L98.323 0.896145L94.971 16.6822L91.593 0.895381L91.5084 0.5H91.1041H84.666H84.166V1V24V24.5H84.666H88.8005H89.3005V24V9.73906L92.2682 24.1012L92.3507 24.5H92.7579H97.0697H97.4763L97.5592 24.1019L100.557 9.70281V24V24.5H101.057H105.221ZM82.144 19.8792V19.3792H81.644H71.6304V1V0.5H71.1304H66.671H66.171V1V24V24.5H66.671H81.644H82.144V24V19.8792ZM63.993 24.5H64.6828L64.4681 23.8444L56.9373 0.844415L56.8246 0.5H56.4622H51.4416H51.0801L50.9668 0.843314L43.3769 23.8433L43.1602 24.5H43.8517H48.5179H48.8877L48.996 24.1463L50.3348 19.7722H57.4441L58.6986 24.1381L58.8026 24.5H59.1792H63.993ZM40.9557 9.97639V9.47639H40.4557H30.6489V5.58889H41.3712H41.8712V5.08889V1V0.5H41.3712H25.8076H25.3076V1V24V24.5H25.8076H41.9028H42.4028V24V19.8792V19.3792H41.9028H30.6489V14.4694H40.4557H40.9557V13.9694V9.97639ZM21.5547 24.5H22.0547V24V1V0.5H21.5547H15.1461H14.7411L14.657 0.896145L11.305 16.6822L7.92703 0.895381L7.84243 0.5H7.4381H1H0.5V1V24V24.5H1H5.13456H5.63456V24V9.73906L8.60227 24.1012L8.68468 24.5H9.09192H13.4037H13.8103L13.8932 24.1019L16.8906 9.7028V24V24.5H17.3906H21.5547ZM139.292 5.49306C140.274 5.49306 140.942 5.72777 141.416 6.13782C141.843 6.5071 142.1 7.18696 142.1 8.31528C142.1 9.47193 141.844 10.1626 141.405 10.5666C140.927 11.0064 140.26 11.2653 139.292 11.2653H135.657V5.49306H139.292ZM119.88 14.8111H115.818L117.882 8.01673L119.88 14.8111ZM55.9121 14.8111H51.8503L53.9145 8.01673L55.9121 14.8111Z" stroke="#F6F6F6"/>
</svg>
